<svg id="logo" xmlns="http://www.w3.org/2000/svg" width="26.692" height="35.209" viewBox="0 0 26.692 35.209">
  <path id="Path_1" data-name="Path 1" d="M82.122,0H56.57A.57.57,0,0,0,56,.57V34.639a.57.57,0,0,0,.57.57H82.122a.57.57,0,0,0,.57-.57V.57A.57.57,0,0,0,82.122,0ZM57.141,1.947,58.433,3.24V31.969l-1.293,1.293Zm2.433,29.688V3.574H79.118V31.635Zm19.878-29.2H59.24L57.947,1.141h22.8ZM59.24,32.776H79.452l1.293,1.293h-22.8Zm21.019-.807V3.24l1.293-1.293V33.262Z" transform="translate(-56)" fill="#bbb175"/>
  <path id="Path_2" data-name="Path 2" d="M136.388,64H120.57a.57.57,0,0,0-.57.57V88.905a.57.57,0,0,0,.57.57h15.818a.57.57,0,0,0,.57-.57V64.57A.57.57,0,0,0,136.388,64Zm-9.516,12.819a.57.57,0,0,0-.622.124l-.272.272a1.627,1.627,0,0,1-2.728-1.545l2.187-8.748.814,3.258a1.1,1.1,0,1,0,.485,1.941l1.772,7.089h-1.285V77.346A.57.57,0,0,0,126.872,76.819Zm-.789-5.557a.038.038,0,1,1-.038-.038A.038.038,0,0,1,126.084,71.262Zm.57,15.114a2.476,2.476,0,0,1,2.418,1.958h-4.835A2.476,2.476,0,0,1,126.654,86.377Zm.57-1.1V83.517l2.486.5,1.08,4.32h-.561A3.62,3.62,0,0,0,127.224,85.281Zm.711-2.785,1.155-.962.314,1.256Zm3.872,5.2-1.744-6.975.606-.505a.57.57,0,0,0-.365-1.009h-.619l-1.343-5.372a5.2,5.2,0,0,0,3.141,1.018,5.084,5.084,0,0,0,3.464-1.293,13.111,13.111,0,0,1-3.14,14.136Zm2.6-15.219a2.886,2.886,0,0,1-.61.557,2.363,2.363,0,0,0,0-1.114A2.888,2.888,0,0,1,134.4,72.479Zm-1.684,0a1.236,1.236,0,1,1-1.236-1.236A1.237,1.237,0,0,1,132.719,72.479Zm-3.546.557a2.891,2.891,0,0,1-.61-.557,2.887,2.887,0,0,1,.61-.557,2.364,2.364,0,0,0,0,1.114Zm2.31-2.934a4.986,4.986,0,0,0-3.693,1.527l-1.5-5.99a13.172,13.172,0,0,1,6.523,4.267q.188.228.365.464A5.487,5.487,0,0,0,131.483,70.1Zm-10.342-4.962h3.566l-2.563,10.252a2.768,2.768,0,0,0,3.94,3.138V79.78a.57.57,0,0,0,.57.57h2.075l-2.44,2.033a.57.57,0,0,0-.205.438v2.46a3.62,3.62,0,0,0-3,3.053h-1.938Zm14.677,23.194h-3.03a14.243,14.243,0,0,0,3.03-4.484ZM133.7,69.18a14.332,14.332,0,0,0-5.406-4.04h7.528v7.534A14.214,14.214,0,0,0,133.7,69.18Z" transform="translate(-115.133 -59.133)" fill="#bbb175"/>
</svg>
